# Blender v2.77 (sub 0) OBJ File: ''
# www.blender.org
v -0.002625 0.984565 -0.999306
v 0.192465 0.984565 -0.980091
v 0.380058 0.984565 -0.923186
v 0.552945 0.984565 -0.830776
v 0.704482 0.984565 -0.706413
v 0.828845 0.984565 -0.554876
v 0.921254 0.984565 -0.381990
v 0.978160 0.984565 -0.194396
v 0.997375 0.984565 0.000694
v -0.002625 2.984565 0.000694
v 0.978160 0.984565 0.195784
v 0.921254 0.984565 0.383377
v 0.828845 0.984565 0.556264
v 0.704482 0.984565 0.707801
v 0.552945 0.984565 0.832164
v 0.380058 0.984565 0.924573
v 0.192465 0.984565 0.981479
v -0.002625 0.984565 1.000694
v -0.197716 0.984565 0.981479
v -0.385309 0.984565 0.924573
v -0.558196 0.984565 0.832163
v -0.709732 0.984565 0.707800
v -0.834095 0.984565 0.556264
v -0.926505 0.984565 0.383377
v -0.983411 0.984565 0.195783
v -1.002625 0.984565 0.000693
v -0.983410 0.984565 -0.194397
v -0.926504 0.984565 -0.381991
v -0.834094 0.984565 -0.554877
v -0.709731 0.984565 -0.706414
v -0.558194 0.984565 -0.830777
v -0.385307 0.984565 -0.923186
v -0.197714 0.984565 -0.980092
vn 0.0878 0.4455 -0.8910
vn 0.2599 0.4455 -0.8567
vn 0.4220 0.4455 -0.7896
vn 0.5680 0.4455 -0.6921
vn 0.6921 0.4455 -0.5680
vn 0.7896 0.4455 -0.4220
vn 0.8567 0.4455 -0.2599
vn 0.8910 0.4455 -0.0878
vn 0.8910 0.4455 0.0878
vn 0.8567 0.4455 0.2599
vn 0.7896 0.4455 0.4220
vn 0.6921 0.4455 0.5680
vn 0.5680 0.4455 0.6921
vn 0.4220 0.4455 0.7896
vn 0.2599 0.4455 0.8567
vn 0.0878 0.4455 0.8910
vn -0.0878 0.4455 0.8910
vn -0.2599 0.4455 0.8567
vn -0.4220 0.4455 0.7896
vn -0.5680 0.4455 0.6921
vn -0.6921 0.4455 0.5680
vn -0.7896 0.4455 0.4220
vn -0.8567 0.4455 0.2599
vn -0.8910 0.4455 0.0878
vn -0.8910 0.4455 -0.0878
vn -0.8567 0.4455 -0.2599
vn -0.7896 0.4455 -0.4220
vn -0.6921 0.4455 -0.5680
vn -0.5680 0.4455 -0.6921
vn -0.4220 0.4455 -0.7896
vn -0.2599 0.4455 -0.8567
vn -0.0878 0.4455 -0.8910
vn 0.0000 -1.0000 -0.0000
s off
f 1//1 10//1 2//1
f 2//2 10//2 3//2
f 3//3 10//3 4//3
f 4//4 10//4 5//4
f 5//5 10//5 6//5
f 6//6 10//6 7//6
f 7//7 10//7 8//7
f 8//8 10//8 9//8
f 9//9 10//9 11//9
f 11//10 10//10 12//10
f 12//11 10//11 13//11
f 13//12 10//12 14//12
f 14//13 10//13 15//13
f 15//14 10//14 16//14
f 16//15 10//15 17//15
f 17//16 10//16 18//16
f 18//17 10//17 19//17
f 19//18 10//18 20//18
f 20//19 10//19 21//19
f 21//20 10//20 22//20
f 22//21 10//21 23//21
f 23//22 10//22 24//22
f 24//23 10//23 25//23
f 25//24 10//24 26//24
f 26//25 10//25 27//25
f 27//26 10//26 28//26
f 28//27 10//27 29//27
f 29//28 10//28 30//28
f 30//29 10//29 31//29
f 31//30 10//30 32//30
f 32//31 10//31 33//31
f 33//32 10//32 1//32
f 17//33 25//33 33//33
f 33//33 1//33 2//33
f 2//33 3//33 4//33
f 4//33 5//33 6//33
f 6//33 7//33 4//33
f 8//33 9//33 11//33
f 11//33 12//33 8//33
f 13//33 14//33 17//33
f 15//33 16//33 17//33
f 17//33 18//33 19//33
f 19//33 20//33 21//33
f 21//33 22//33 23//33
f 23//33 24//33 25//33
f 25//33 26//33 27//33
f 27//33 28//33 29//33
f 29//33 30//33 33//33
f 31//33 32//33 33//33
f 33//33 2//33 8//33
f 4//33 7//33 8//33
f 8//33 12//33 13//33
f 14//33 15//33 17//33
f 17//33 19//33 25//33
f 21//33 23//33 25//33
f 25//33 27//33 33//33
f 30//33 31//33 33//33
f 2//33 4//33 8//33
f 8//33 13//33 17//33
f 19//33 21//33 25//33
f 27//33 29//33 33//33
f 33//33 8//33 17//33
v 1.000000 -1.000000 -1.000000
v 1.000000 -1.000000 1.000000
v -1.000000 -1.000000 1.000000
v -1.000000 -1.000000 -1.000000
v 1.000000 1.000000 -0.999999
v 0.999999 1.000000 1.000001
v -1.000000 1.000000 1.000000
v -1.000000 1.000000 -1.000000
vn 0.0000 -1.0000 0.0000
vn 0.0000 1.0000 0.0000
vn 1.0000 -0.0000 0.0000
vn 0.0000 -0.0000 1.0000
vn -1.0000 -0.0000 -0.0000
vn 0.0000 0.0000 -1.0000
s off
f 35//34 37//34 34//34
f 41//35 39//35 38//35
f 38//36 35//36 34//36
f 39//37 36//37 35//37
f 36//38 41//38 37//38
f 34//39 41//39 38//39
f 35//34 36//34 37//34
f 41//35 40//35 39//35
f 38//36 39//36 35//36
f 39//37 40//37 36//37
f 36//38 40//38 41//38
f 34//39 37//39 41//39
